<?xml version="1.0" encoding="UTF-8"?>
<svg width="22px" height="22px" viewBox="0 0 22 22" version="1.1" xmlns="http://www.w3.org/2000/svg" xmlns:xlink="http://www.w3.org/1999/xlink">
    <!-- Generator: Sketch 60.1 (88133) - https://sketch.com -->
    <title>logo</title>
    <desc>Created with Sketch.</desc>
    <defs>
        <polygon id="path-1" points="0 0 18 0 18 18 0 18"></polygon>
    </defs>
    <g id="页面-1" stroke="none" stroke-width="1" fill="none" fill-rule="evenodd">
        <g id="logo" transform="translate(-14.000000, -48.000000)">
            <g transform="translate(14.000000, 48.000000)">
                <path d="M18.544,16.627551 L18.544,10.7908163 C18.544,9.79591837 19.312,9 20.272,9 L22,9 L22,16.627551 C22,17.622449 21.2106667,18.4183673 20.272,18.4183673 C19.312,18.4183673 18.544,19.2142857 18.544,20.2091837 C18.544,21.2040816 17.776,22 16.816,22 L6,22 L6,20.2091837 C6,19.2142857 6.768,18.4183673 7.728,18.4183673 L16.816,18.4183673 C17.776,18.4183673 18.544,17.622449 18.544,16.627551" id="Fill-1" fill="#FFFFFF"></path>
                <mask id="mask-2" fill="white">
                    <use xlink:href="#path-1"></use>
                </mask>
                <g id="Clip-4"></g>
                <path d="M7.27614571,5.56941176 C6.32432432,5.56941176 5.56286722,6.33176471 5.56286722,7.28470588 L5.56286722,15.2260941 C5.56286722,16.7717647 4.31492362,18 2.77085781,18 L0,18 L0,8.34352941 C0,6.79764706 1.2479436,5.56941176 2.77085781,5.54823529 C4.31492362,5.54823529 5.54171563,4.29882353 5.56286722,2.75294118 C5.5840188,1.24941176 6.81081081,0 8.35487662,0 L18,0 L18,2.79529412 C18,4.34117647 16.7520564,5.56941176 15.2079906,5.59058824 L7.27614571,5.56941176 Z" id="Fill-3" fill="#FFFFFF" mask="url(#mask-2)"></path>
                <path d="M13.8365019,15 L9,15 L9,10.1450382 C9,9.50381679 9.50190114,9 10.1406844,9 L15,9 L15,13.8780916 C14.9771863,14.4961832 14.4752852,15 13.8365019,15" id="Fill-5" fill="#FFFFFF" mask="url(#mask-2)"></path>
            </g>
        </g>
    </g>
</svg>